<?xml version="1.0" encoding="UTF-8" standalone="no"?>
<svg
   version="1.1"
   width="256"
   height="256"
   viewBox="0 0 256 256"
   xml:space="preserve"
   id="svg12"
   sodipodi:docname="phone-ringing-505.svg"
   inkscape:version="1.1.2 (0a00cf5339, 2022-02-04)"
   xmlns:inkscape="http://www.inkscape.org/namespaces/inkscape"
   xmlns:sodipodi="http://sodipodi.sourceforge.net/DTD/sodipodi-0.dtd"
   xmlns="http://www.w3.org/2000/svg"
   xmlns:svg="http://www.w3.org/2000/svg"><sodipodi:namedview
   id="namedview14"
   pagecolor="#ffe2ff"
   bordercolor="#666666"
   borderopacity="1.0"
   inkscape:pageshadow="2"
   inkscape:pageopacity="0"
   inkscape:pagecheckerboard="true"
   showgrid="false"
   inkscape:zoom="1.6074219"
   inkscape:cx="38.882138"
   inkscape:cy="107.62576"
   inkscape:window-width="1920"
   inkscape:window-height="995"
   inkscape:window-x="0"
   inkscape:window-y="0"
   inkscape:window-maximized="1"
   inkscape:current-layer="svg12" />

<defs
   id="defs2">
</defs>

<path
   style="fill:#ffffff;stroke-width:0.311057"
   d="M 194.56622,253.77906 C 163.75529,250.61013 123.23868,228.05797 84.618999,192.58077 79.9905,188.3289 67.949365,176.25479 63.178349,171.08141 29.685136,134.76355 7.87705,97.012827 2.6216345,66.255164 1.7762265,61.307359 1.4563158,50.877428 2.0134552,46.426913 3.1059921,37.699565 6.3331681,29.713677 11.386204,23.233346 13.426792,20.616368 15.015907,19.446201 18.455722,18.027605 24.296436,15.618867 37.509823,9.9895732 46.501311,6.0793546 52.376514,3.5243465 56.869206,1.7513562 57.725182,1.6499783 c 2.298914,-0.2722723 4.768661,0.6117563 6.532236,2.3381677 1.141443,1.1173905 5.180311,7.687774 17.392379,28.293719 8.748136,14.761099 16.173782,27.4289 16.501437,28.150668 0.875694,1.929005 0.801631,4.618958 -0.185574,6.739767 -0.43389,0.932127 -5.18879,9.891144 -10.566448,19.908928 -7.154765,13.328282 -9.860566,18.651872 -10.087013,19.845922 -0.385872,2.03469 0.01792,4.3752 1.055575,6.1186 0.415007,0.69726 15.006465,15.49311 32.425466,32.87967 29.01733,28.96329 31.79935,31.65422 33.20385,32.11665 1.87223,0.61642 4.35548,0.6494 5.97109,0.0793 0.66307,-0.23398 9.73578,-5.00661 20.16159,-10.60585 20.68744,-11.1103 21.0059,-11.24808 23.98187,-10.37567 1.50555,0.44135 54.21261,31.4518 56.42591,33.19845 2.66779,2.10532 3.99265,5.20507 3.44929,8.07022 -0.15328,0.80823 -2.43822,6.43443 -5.07763,12.50267 -2.63942,6.06824 -6.22777,14.46142 -7.97412,18.65151 -4.50354,10.80557 -5.03503,11.83948 -6.95131,13.52236 -9.64007,8.46596 -23.78054,12.30228 -39.41756,10.694 z"
   id="path127" /><path
   style="fill:#ffffff;stroke-width:0.311057"
   d="m 179.85031,136.00972 c -0.11944,-2.70949 -0.48393,-5.70208 -0.99453,-8.16525 -5.98503,-28.872531 -29.5696,-49.780028 -58.63221,-51.976877 -2.3096,-0.174584 -4.29379,-0.414147 -4.40931,-0.532363 -0.11552,-0.118216 -0.31114,-5.719495 -0.43471,-12.447287 l -0.22467,-12.232349 2.14552,0.175998 c 1.18004,0.0968 3.89523,0.328405 6.03374,0.514682 30.44476,2.651906 58.12256,21.650735 72.0538,49.459786 5.51834,11.01551 8.76689,23.56074 9.23669,35.67025 l 0.14784,3.81045 h -12.36681 -12.3668 z"
   id="path205" /><path
   style="fill:#ffffff;stroke-width:0.311057"
   d="m 179.84585,136.00972 c -0.73777,-16.07633 -8.8949,-32.78571 -21.47132,-43.982632 -10.54522,-9.388534 -23.95094,-15.065072 -38.15096,-16.154693 -2.3096,-0.177225 -4.29463,-0.418949 -4.41118,-0.537165 -0.11656,-0.118216 -0.31259,-5.714017 -0.43564,-12.435113 l -0.22373,-12.220174 2.61304,0.182845 c 13.83972,0.968423 22.66158,3.005884 33.2493,7.679124 31.30611,13.817977 51.903,43.733648 53.65772,77.934398 l 0.1955,3.81045 h -12.41322 -12.41323 z"
   id="path244" /><path
   style="fill:#ffffff;stroke-width:0.311057"
   d="m 179.94654,137.81423 c 0,-5.55654 -1.59063,-13.60512 -3.92155,-19.84297 -3.30316,-8.83972 -9.72268,-18.646962 -16.03207,-24.492552 -11.26772,-10.439416 -24.77134,-16.409106 -39.82384,-17.605346 -2.27963,-0.181165 -4.24196,-0.424719 -4.36074,-0.541231 -0.11878,-0.116512 -0.31565,-5.710988 -0.43751,-12.43217 l -0.22154,-12.22033 2.6149,0.183001 c 8.0946,0.566491 13.65149,1.377195 19.38193,2.827664 14.56771,3.687329 28.66976,11.530794 39.64828,22.05211 17.05488,16.344632 26.67666,37.305744 27.87868,60.733904 l 0.1955,3.81045 h -12.46102 -12.46102 z"
   id="path283" /><path
   style="fill:#ffffff;stroke-width:0.311057"
   d="M 228.99306,135.38761 C 227.67711,102.81951 212.12504,72.206862 186.40555,51.558444 170.24963,38.587959 150.61296,30.186366 130.27642,27.543475 c -2.99168,-0.388793 -12.20806,-1.089205 -14.48541,-1.10084 -0.50931,-0.0026 -0.54435,-0.803702 -0.54435,-12.445065 V 1.5552855 l 2.41069,0.00127 c 6.1356,0.00322 16.14374,1.0688116 23.71811,2.5253259 37.92165,7.2921506 71.01248,30.0701566 91.81136,63.1981706 3.37699,5.378784 8.90057,16.291374 11.13242,21.993579 5.55969,14.204619 9.00561,29.862969 9.51507,43.236699 0.088,2.3096 0.22417,5.00413 0.30265,5.98785 l 0.14269,1.78858 h -12.54432 -12.54431 z"
   id="path322" /><path
   style="fill:#ffffff;stroke-width:0.311057"
   d="m 229.40161,140.05346 c -0.0298,-2.30862 -0.7497,-11.72788 -1.11035,-14.52748 C 225.54385,104.19879 216.40623,83.504836 202.39647,66.882112 197.86683,61.507642 190.30999,54.30113 184.74629,50.05019 169.69685,38.55165 152.71426,31.125477 134.37667,28.024481 c -4.02843,-0.681232 -13.42301,-1.579986 -16.54543,-1.582857 -1.05916,-9.73e-4 -1.99184,-0.108704 -2.07262,-0.239401 -0.0808,-0.130697 -0.24959,-5.736663 -0.37515,-12.457703 l -0.2283,-12.2200723 3.70067,0.184556 c 22.32353,1.1132984 40.26615,5.6988845 58.66192,14.9922013 21.63767,10.93108 39.6599,26.937653 53.34253,47.376559 3.88462,5.802786 9.0021,15.368554 12.38828,23.156609 4.17624,9.605158 8.18924,24.602477 9.618,35.944237 0.47489,3.76981 1.10312,12.62604 1.10878,15.63062 l 0.003,1.47753 h -12.28676 c -6.75771,0 -12.28811,-0.10499 -12.28976,-0.2333 z"
   id="path361" /><path
   style="fill:#ffffff;stroke-width:0.311057"
   d="m 229.2934,138.37478 c -0.10991,-1.05158 -0.20134,-2.69629 -0.20317,-3.65492 -0.002,-0.95862 -0.21066,-3.70261 -0.46405,-6.09775 -1.49275,-14.10943 -5.02427,-26.21152 -11.39163,-39.037663 -13.50759,-27.209136 -37.27215,-47.76858 -66.46888,-57.504276 -9.72147,-3.24164 -20.8508,-5.150318 -33.34161,-5.718081 l -1.71082,-0.07776 -0.19358,-5.754557 c -0.10647,-3.165006 -0.21145,-8.731257 -0.23329,-12.369448 l -0.0397,-6.6148916 3.96598,0.182765 c 18.08164,0.8332601 34.49556,4.4546874 50.07143,11.0473346 4.7718,2.019714 13.66778,6.628901 18.30745,9.485467 19.28377,11.872675 36.47891,29.438627 47.32835,48.348968 2.36262,4.117994 6.76124,12.901952 8.45233,16.87915 4.21155,9.904885 8.07629,24.432542 9.49437,35.689492 0.47489,3.76981 1.10312,12.62604 1.10878,15.63062 l 0.003,1.47753 h -12.24244 -12.24245 z"
   id="path400" /></svg>
