<?xml version="1.0" encoding="UTF-8" standalone="no"?>
<svg
   width="24"
   height="24"
   fill-rule="evenodd"
   clip-rule="evenodd"
   version="1.1"
   id="svg663"
   sodipodi:docname="iconaUbicacion.svg"
   inkscape:version="1.1.2 (0a00cf5339, 2022-02-04)"
   xmlns:inkscape="http://www.inkscape.org/namespaces/inkscape"
   xmlns:sodipodi="http://sodipodi.sourceforge.net/DTD/sodipodi-0.dtd"
   xmlns="http://www.w3.org/2000/svg"
   xmlns:svg="http://www.w3.org/2000/svg">
  <defs
     id="defs667" />
  <sodipodi:namedview
     id="namedview665"
     pagecolor="#ffd6ff"
     bordercolor="#666666"
     borderopacity="1.0"
     inkscape:pageshadow="2"
     inkscape:pageopacity="0"
     inkscape:pagecheckerboard="true"
     showgrid="false"
     inkscape:zoom="22.627417"
     inkscape:cx="8.9935144"
     inkscape:cy="8.1759221"
     inkscape:window-width="1920"
     inkscape:window-height="995"
     inkscape:window-x="0"
     inkscape:window-y="0"
     inkscape:window-maximized="1"
     inkscape:current-layer="svg663" />
  <path
     style="fill:#ffffff;stroke-width:0.03125"
     d="M 11.885561,21.91191 C 11.824197,21.814266 11.373769,21.101562 10.88461,20.328125 6.721078,13.744926 5.4376759,11.139492 5.0736258,8.53125 5.0125321,8.0935437 5.021202,7.0588369 5.0890747,6.6875 5.3880388,5.0518444 6.2836919,3.6070983 7.6639179,2.5341122 9.4261347,1.1641669 11.712247,0.69032796 13.798813,1.2625424 c 3.088046,0.8468578 5.294617,3.6534367 5.174236,6.5812076 -0.100484,2.443847 -1.25039,5.064635 -4.593305,10.46875 -0.462089,0.747008 -2.245756,3.57814 -2.346448,3.72441 -0.03149,0.04574 -0.05059,0.02958 -0.147735,-0.125 z m 0.647762,-10.944753 c 0.471583,-0.08353 0.977443,-0.31734 1.373206,-0.634706 1.132836,-0.9084329 1.440247,-2.5661888 0.709724,-3.8272832 -0.458182,-0.790955 -1.234813,-1.3337425 -2.110457,-1.4749991 -0.30322,-0.048915 -1.007107,-0.023718 -1.252254,0.044826 -0.63893,0.1786478 -1.201599,0.535235 -1.576757,0.9992587 -1.2220153,1.51148 -0.7609944,3.7394991 0.954063,4.6107856 0.244221,0.12407 0.500037,0.214105 0.759777,0.267406 0.248742,0.05104 0.8909,0.05931 1.142698,0.01471 z"
     id="path2470" />
</svg>
